# xmcd CD database file
#
# Track frame offsets:
#	150
#	17855
#	34550
#	54790
#	73770
#	99005
#	117065
#	137041
#	155812
#	173712
#	188944
#
# Disc length: 2835 seconds
#
# Revision: 0
# Processed by: cddbd v1.5.2PL0 Copyright (c) Steve Scherf et al.
# Submitted via: CDex 1.51
#
DISCID=880b110b
DTITLE=Friðrik Karlson ásamt Þórunni Lárusdótur - Álfar og Fjöll
DYEAR=2006
DGENRE=New Age
TTITLE0=Kvöldsigling
TTITLE1=Í fjarlægð
TTITLE2=Draumar um nótt
TTITLE3=Hvert örstutt spor
TTITLE4=Ísland er land þitt
TTITLE5=Dagný
TTITLE6=Eldur, ís og fjöll
TTITLE7=Sveitin mín
TTITLE8=Nú sefur jörðin
TTITLE9=Sofðu unga ástin mín
TTITLE10=Sefur sól hjá ægi
EXTD=YEAR: 2006
EXTT0=
EXTT1=
EXTT2=
EXTT3=
EXTT4=
EXTT5=
EXTT6=
EXTT7=
EXTT8=
EXTT9=
EXTT10=
PLAYORDER=
